<svg id="Capa_1" enable-background="new 0 0 512.003 512.003" height="512" viewBox="0 0 512.003 512.003" width="512" xmlns="http://www.w3.org/2000/svg"><g><path d="m493.382 7.5h-143.071c-6.141 0-11.12 4.978-11.12 11.12v104.529c0 6.141 4.979 11.12 11.12 11.12h13.041c2.519 0 4.834 1.383 6.029 3.6l11.215 20.815c.912 1.692 3.339 1.692 4.251 0l11.215-20.815c1.195-2.217 3.51-3.6 6.029-3.6h91.291c6.141 0 11.12-4.978 11.12-11.12v-104.529c0-6.141-4.979-11.12-11.12-11.12z" fill="#80e29d"/><g fill="#66b49d"><path d="m374.32 137.869-2.47 4.583 8.745 16.231c.912 1.692 3.339 1.692 4.251 0l11.215-20.815c1.195-2.218 3.51-3.6 6.029-3.6h-21.742c-2.518.001-4.833 1.383-6.028 3.601z"/><path d="m493.382 7.5h-21.742c6.141 0 11.12 4.979 11.12 11.12v104.529c0 6.141-4.978 11.12-11.12 11.12h21.742c6.141 0 11.12-4.979 11.12-11.12v-104.529c0-6.141-4.979-11.12-11.12-11.12z"/></g><path d="m292.911 234.067-22.123-29.883c-3.287-4.44-5.061-9.818-5.061-15.343v-54.572h-208.835v286.938h118.861v-78.103h18.822c39.296 0 71.152-31.856 71.152-71.152 0-7.864 4.429-15.058 11.451-18.599l12.668-6.388c4.8-2.419 6.263-8.578 3.065-12.898z" fill="#f1d0a5"/><path d="m292.911 234.067-22.123-29.883c-3.287-4.44-5.061-9.818-5.061-15.343v-17.564-37.008h-24.735-184.1l36.906 47.479c0-5.783 4.688-10.471 10.471-10.471h119.158c9.7 0 17.564 7.864 17.564 17.564 0 5.524 1.774 10.903 5.061 15.343l13.681 18.48c7.609 10.278 4.128 24.932-7.291 30.69-7.022 3.541-11.451 10.735-11.451 18.599 0 39.296-31.856 71.152-71.152 71.152h-18.822v78.103h24.735v-78.103h18.822c39.296 0 71.152-31.856 71.152-71.152 0-7.864 4.429-15.058 11.451-18.599l12.668-6.388c4.801-2.42 6.264-8.579 3.066-12.899z" fill="#f1b986"/><path d="m200.669 481.717-72.627 22.206c-2.517.769-5.206.769-7.722 0l-72.627-22.206c-5.552-1.698-9.344-6.822-9.344-12.628v-41.479c0-3.536 2.867-6.403 6.403-6.403h158.859c3.536 0 6.403 2.867 6.403 6.403v41.479c0 5.806-3.792 10.931-9.345 12.628z" fill="#dd636e"/><path d="m210.014 469.089v-41.479c0-3.536-2.867-6.403-6.403-6.403h-39.513c-7.595 24.055-22.667 57.409-51.419 80.38l7.642 2.337c2.517.769 5.206.769 7.722 0l72.627-22.206c5.552-1.698 9.344-6.823 9.344-12.629z" fill="#c63d4f"/><path d="m251.58 65.81h-177.574c-36.73 0-66.505 29.775-66.505 66.505v19.792 79.935c0 36.777 29.814 66.591 66.591 66.591 10.883 0 19.705-8.822 19.705-19.705v-116.35c0-5.783 4.688-10.471 10.471-10.471h168.014c18.113 0 32.796-14.683 32.796-32.796.002-29.548-23.951-53.501-53.498-53.501z" fill="#365e7d"/><path d="m61.689 162.578v116.349c0 6.775-3.421 12.749-8.628 16.295 6.613 2.201 13.68 3.41 21.032 3.41 10.883 0 19.705-8.822 19.705-19.705v-116.349c0-5.783 4.688-10.471 10.471-10.471h-32.109c-5.783 0-10.471 4.688-10.471 10.471z" fill="#2b4d66"/><path d="m251.58 65.81h-32.11c29.547 0 53.5 23.953 53.5 53.5 0 18.113-14.683 32.796-32.796 32.796h32.109c18.113 0 32.796-14.683 32.796-32.796.001-29.547-23.952-53.5-53.499-53.5z" fill="#2b4d66"/><g><path d="m205.603 184.762c-4.142 0-7.5 3.357-7.5 7.5v12.889c0 4.143 3.358 7.5 7.5 7.5s7.5-3.357 7.5-7.5v-12.889c0-4.143-3.358-7.5-7.5-7.5z"/><path d="m100.807 455.354c-4.142 0-7.5 3.357-7.5 7.5s3.358 7.5 7.5 7.5h46.748c4.142 0 7.5-3.357 7.5-7.5s-3.358-7.5-7.5-7.5z"/><path d="m312.58 119.311c0-33.636-27.364-61.001-61-61.001h-138.967l10.862-13.445c2.603-3.222 2.101-7.943-1.121-10.547-3.223-2.604-7.944-2.104-10.547 1.121l-14.067 17.411-10.235-16.63c-2.171-3.527-6.792-4.628-10.318-2.455-3.528 2.171-4.627 6.791-2.456 10.318l8.757 14.227h-9.48c-40.807 0-74.005 33.198-74.005 74.005v20.785c0 4.143 3.358 7.5 7.5 7.5s7.5-3.357 7.5-7.5v-20.785c0-32.535 26.47-59.005 59.005-59.005h177.573c25.365 0 46 20.636 46 46.001 0 13.948-11.348 25.296-25.297 25.296h-168.015c-9.909 0-17.971 8.062-17.971 17.972v116.349c0 6.729-5.476 12.205-12.206 12.205-32.583 0-59.091-26.508-59.091-59.091v-48.955c0-4.143-3.358-7.5-7.5-7.5s-7.5 3.357-7.5 7.5v48.955c0 32.194 20.647 59.645 49.39 69.841v111.825h-4.64c-7.666 0-13.903 6.236-13.903 13.902v41.479c0 9.164 5.888 17.121 14.651 19.8l72.626 22.206c1.981.605 4.018.909 6.055.908 2.037 0 4.073-.303 6.053-.907l33.238-10.163c3.961-1.211 6.19-5.403 4.979-9.364-1.211-3.962-5.404-6.193-9.365-4.979l-33.238 10.162c-1.092.334-2.245.331-3.336 0l-72.627-22.206c-2.415-.738-4.037-2.931-4.037-5.456v-40.382h156.664v40.382c0 2.525-1.622 4.718-4.038 5.456l-10.497 3.209c-3.961 1.211-6.191 5.404-4.98 9.365 1.21 3.961 5.401 6.189 9.365 4.98l10.498-3.211c8.764-2.679 14.652-10.636 14.652-19.8v-41.479c0-7.666-6.237-13.902-13.902-13.902h-20.358v-63.103h11.322c43.526 0 78.651-35.47 78.651-78.652 0-5.062 2.808-9.622 7.328-11.901l12.669-6.389c4.266-2.15 7.346-6.051 8.45-10.698 1.104-4.649.108-9.519-2.734-13.36l-22.123-29.882c-2.315-3.127-3.59-6.991-3.59-10.881v-29.258c21.787-.506 39.356-18.371 39.356-40.273zm-25.697 119.217c.43.58.24 1.412-.413 1.74l-12.669 6.389c-9.606 4.845-15.574 14.537-15.574 25.295 0 9.615-2.155 18.731-5.988 26.912-22.789 3.314-42.606-5.08-55.469-12.954-3.533-2.161-8.149-1.052-10.312 2.48-2.163 3.533-1.052 8.15 2.48 10.312 12.634 7.735 31.1 15.883 52.827 15.917-11.656 12.879-28.493 20.984-47.19 20.984h-68.293c-4.142 0-7.5 3.357-7.5 7.5s3.358 7.5 7.5 7.5h41.971v63.103h-103.861v-108.23c3.178.417 6.411.655 9.701.655 15.001 0 27.206-12.204 27.206-27.205v-116.348c0-1.639 1.333-2.972 2.971-2.972h153.958v29.234c0 7.08 2.32 14.113 6.533 19.806z"/><path d="m403.047 58.364c4.143 0 7.5-3.357 7.5-7.5 0-.528.037-1.063.109-1.585.778-5.576 5.569-9.714 11.196-9.714.076 0 .153.001.23.002 5.89.119 10.741 4.812 11.046 10.686.337 6.486-4.805 11.91-11.283 11.91-4.143 0-7.5 3.357-7.5 7.5v19.658c0 4.143 3.357 7.5 7.5 7.5s7.5-3.357 7.5-7.5v-13.26c11.336-3.39 19.414-14.055 18.764-26.586-.711-13.688-12.01-24.628-25.725-24.904-13.337-.282-24.745 9.464-26.585 22.639-.168 1.208-.253 2.438-.253 3.654.001 4.143 3.359 7.5 7.501 7.5z"/><path d="m421.846 101.693c-4.143 0-7.5 3.357-7.5 7.5v.51c0 4.143 3.357 7.5 7.5 7.5s7.5-3.357 7.5-7.5v-.51c0-4.142-3.357-7.5-7.5-7.5z"/><path d="m493.382 0h-76.298c-4.143 0-7.5 3.357-7.5 7.5s3.357 7.5 7.5 7.5h76.298c1.995 0 3.619 1.624 3.619 3.62v104.529c0 1.995-1.624 3.619-3.619 3.619h-91.291c-5.286 0-10.127 2.891-12.632 7.543l-6.737 12.505-6.738-12.506c-2.508-4.652-7.348-7.542-12.632-7.542h-13.041c-1.996 0-3.62-1.624-3.62-3.62v-104.528c0-1.996 1.624-3.62 3.62-3.62h36.786c4.143 0 7.5-3.357 7.5-7.5s-3.357-7.5-7.5-7.5h-36.786c-10.268 0-18.62 8.353-18.62 18.62v104.528c0 10.268 8.353 18.62 18.62 18.62h12.652l11.029 20.471c1.73 3.215 5.074 5.213 8.727 5.214h.002c3.651 0 6.996-1.997 8.729-5.212l11.03-20.473h90.902c10.267 0 18.619-8.353 18.619-18.619v-104.529c0-10.267-8.352-18.62-18.619-18.62z"/></g></g></svg>