<svg xmlns="http://www.w3.org/2000/svg" height="682.667" viewBox="0 0 512 512" width="682.667" xmlns:v="https://vecta.io/nano"><path d="M512 256c0 141.387-114.613 256-256 256S0 397.387 0 256 114.613 0 256 0s256 114.613 256 256zm0 0" fill="#4a7aff"/><path d="M267.234 511.738C403.406 505.86 512 393.617 512 256l-.04-2.984-177.7-177.703-190 198.594 105.566 105.566-48.676 66.184zm0 0" fill="#0053bf"/><path d="M334.262 75.313v57.97s-66.555-9.66-66.555 33.277v42.938h60.113l-7.512 65.48h-52.602v170.68h-66.555v-170.68l-56.895-1.074v-64.406h55.82v-49.38s-3.684-73.457 68.703-86.95c30.06-5.605 65.48 2.145 65.48 2.145zm0 0" fill="#fff"/><path d="M334.262 133.28v-57.97s-35.422-7.75-65.48-2.145c-4.695.875-9.062 2.008-13.137 3.348v369.14h12.063v-170.68h52.598l7.516-65.48h-60.113V166.56c0-42.937 66.555-33.277 66.555-33.277zm0 0" fill="#dce1eb"/></svg>