<svg id="Layer_1" enable-background="new 0 0 512 512" height="512" viewBox="0 0 512 512" width="512" xmlns="http://www.w3.org/2000/svg"><g><g><g><g fill="#602824"><path d="m114.058 350.776c-3.126.833-6.411 1.277-9.8 1.277-20.965 0-37.96-16.995-37.96-37.96s15.955-37.96 40.89-37.96z"/><path d="m398.283 350.776c3.126.833 6.411 1.277 9.8 1.277 20.965 0 37.96-16.995 37.96-37.96s-15.955-37.96-40.89-37.96z"/></g><g><path d="m398.49 352.949c.29 3.55.44 7.16.44 10.77 0 34-28.95 74.62-86.07 120.75-16.01 13-36.04 20.08-56.69 20.03-.37 0-.73 0-1.1-.01-20.26-.19-39.87-7.25-55.59-20.02-57.12-46.13-86.07-86.75-86.07-120.75 0-3.61.15-7.22.44-10.77.37-3.69 1.95-11.56 2.11-20.6 0-42.9-38.85-121.52 23.62-180.661 29.43-27.87 66.28-38.85 115.49-39.01h1.1c49.76 0 86.94 10.93 116.59 39.01 62.47 59.14 23.62 137.761 23.62 180.661.16 9.04 1.74 16.91 2.11 20.6z" fill="#98654c"/><path d="m398.49 352.949c.29 3.55.44 7.16.44 10.77 0 34-28.95 74.62-86.07 120.75-16.01 13-36.04 20.08-56.69 20.03-.37 0-.73 0-1.1-.01 16.66-.19 32.76-7.25 45.68-20.02 46.93-46.13 70.71-86.75 70.71-120.75 0-3.61-.12-7.22-.36-10.77-.3-3.69-1.6-11.56-1.74-20.6 0-42.9 31.92-121.52-19.4-180.661-24.18-27.87-54.46-38.85-94.89-39.01h1.1c49.76 0 86.94 10.93 116.59 39.01 62.47 59.14 23.62 137.761 23.62 180.661.16 9.04 1.74 16.91 2.11 20.6z" fill="#773e31"/></g><g fill="#f55c80"><circle cx="78.213" cy="62.52" r="15.001"/><circle cx="433.121" cy="62.52" r="15.001"/></g></g></g><path d="m369.747 121.58c0 63-51.08 114.08-114.08 114.08-3.54 0-7.04-.16-10.5-.49-58.08-5.29-103.58-54.13-103.58-113.59s45.5-108.3 103.58-113.59c3.46-.33 6.96-.49 10.5-.49 63 0 114.08 51.08 114.08 114.08z" fill="#ffd469"/><path d="m369.747 121.58c0 63-51.08 114.08-114.08 114.08-3.54 0-7.04-.16-10.5-.49 58.08-5.29 103.58-54.13 103.58-113.59s-45.5-108.3-103.58-113.59c3.46-.33 6.96-.49 10.5-.49 63 0 114.08 51.08 114.08 114.08z" fill="#ffba4c"/></g><g><path d="m179.162 457.105c-38.654-35.678-58.254-67.095-58.254-93.381 0-3.385.139-6.781.413-10.096.087-.857.271-2.128.484-3.595.609-4.201 1.529-10.549 1.657-17.543.001-.046.001-.092.001-.138 0-11.328-2.503-24.781-5.154-39.025-4.01-21.549-8.631-46.384-5.936-71.03l17.903 13.313c1.345 1 2.914 1.482 4.47 1.482 2.291 0 4.552-1.046 6.024-3.025 2.472-3.324 1.781-8.022-1.543-10.494l-23.859-17.742c2.418-9.268 6.149-18.396 11.628-27.194 2.189-3.516 1.114-8.141-2.402-10.331-3.518-2.19-8.142-1.115-10.331 2.402-5.218 8.38-9.056 16.922-11.802 25.524l-14.004-10.412v-102.084c8.73-3.096 15-11.437 15-21.216 0-12.407-10.093-22.501-22.5-22.501s-22.5 10.094-22.5 22.501c0 9.779 6.27 18.12 15 21.216v105.853c0 2.372 1.122 4.604 3.024 6.019l22.103 16.436c-3.427 19.48-2.192 38.935.394 57.171-23.715 3.349-40.18 21.199-40.18 44.893 0 25.067 20.393 45.46 45.46 45.46.572 0 1.143-.011 1.714-.032-.042 1.396-.063 2.794-.063 4.19 0 30.644 21.223 65.77 63.08 104.403 1.442 1.331 3.266 1.989 5.085 1.989 2.021 0 4.035-.812 5.513-2.413 2.809-3.046 2.619-7.79-.425-10.6zm-98.205-402.086c4.136 0 7.5 3.365 7.5 7.501s-3.364 7.501-7.5 7.501-7.5-3.365-7.5-7.501 3.364-7.501 7.5-7.501zm-7.159 259.087c0-16.104 11.071-27.847 27.564-30.077.724 4.105 1.472 8.124 2.201 12.042 2.514 13.512 4.89 26.276 4.901 36.21-.085 4.44-.543 8.612-1.013 12.118-1.057.11-2.123.166-3.193.166-16.796.001-30.46-13.663-30.46-30.459z"/><path d="m413.363 269.214c2.615-18.441 3.848-38.131.276-57.832l21.214-15.775c1.903-1.416 3.024-3.647 3.024-6.019v-105.852c8.73-3.096 15-11.437 15-21.216 0-12.407-10.093-22.501-22.5-22.501s-22.5 10.094-22.5 22.501c0 9.779 6.27 18.12 15 21.216v102.084l-13.191 9.809c-2.732-8.398-6.511-16.737-11.607-24.92-2.19-3.517-6.816-4.592-10.331-2.402-3.516 2.19-4.592 6.815-2.402 10.331 5.355 8.6 9.04 17.515 11.462 26.568l-24.701 18.368c-3.324 2.472-4.015 7.17-1.543 10.494 1.472 1.979 3.733 3.025 6.024 3.025 1.556 0 3.125-.482 4.47-1.482l18.832-14.004c2.859 24.873-1.811 49.971-5.859 71.721-2.651 14.244-5.154 27.697-5.154 39.025 0 .046 0 .092.001.138.128 6.996 1.049 13.345 1.658 17.546.212 1.466.396 2.735.483 3.592.274 3.314.413 6.71.413 10.095 0 31.619-28.021 70.281-83.297 114.925-14.59 11.838-32.955 18.351-51.772 18.351-.142 0-.282 0-.423 0-18.777 0-37.144-6.514-51.735-18.351-3.216-2.609-7.94-2.119-10.549 1.099-2.61 3.216-2.118 7.939 1.099 10.549 17.256 14 38.976 21.703 61.147 21.703h.5c22.208-.001 43.931-7.703 61.173-21.692 58.963-47.621 88.859-90.21 88.859-126.584 0-1.396-.021-2.795-.063-4.19.57.021 1.141.032 1.713.032 25.067 0 45.46-20.393 45.46-45.46-.001-23.693-16.466-41.543-40.181-44.892zm17.014-214.195c4.136 0 7.5 3.365 7.5 7.501s-3.364 7.501-7.5 7.501-7.5-3.365-7.5-7.501 3.364-7.501 7.5-7.501zm-22.294 289.547c-1.07 0-2.136-.056-3.193-.166-.469-3.506-.927-7.678-1.013-12.118.011-9.934 2.387-22.698 4.901-36.21.729-3.918 1.477-7.938 2.201-12.042 16.494 2.229 27.565 13.972 27.565 30.077-.001 16.795-13.665 30.459-30.461 30.459z"/><path d="m249.105 380.581c0-3.618 2.943-6.562 6.562-6.562s6.562 2.944 6.562 6.562c0 4.142 3.358 7.5 7.5 7.5s7.5-3.358 7.5-7.5c0-11.889-9.673-21.562-21.562-21.562s-21.562 9.673-21.562 21.562c0 4.142 3.358 7.5 7.5 7.5s7.5-3.358 7.5-7.5z"/><path d="m210.631 404.297c-2.032-3.609-6.604-4.889-10.215-2.857-3.609 2.032-4.889 6.605-2.857 10.215 11.801 20.967 34.067 33.992 58.11 33.992s46.309-13.025 58.11-33.992c2.031-3.61.752-8.183-2.857-10.215-3.608-2.03-8.183-.752-10.215 2.857-9.147 16.253-26.404 26.35-45.038 26.35s-35.891-10.097-45.038-26.35z"/><path d="m223.621 330.53c1.377 2.447 3.922 3.823 6.543 3.823 1.246 0 2.509-.311 3.672-.965 3.609-2.032 4.889-6.605 2.857-10.215-7.289-12.95-21.042-20.995-35.892-20.995-14.851 0-28.604 8.045-35.892 20.995-2.031 3.61-.752 8.183 2.858 10.214 3.61 2.03 8.183.752 10.214-2.858 4.635-8.235 13.378-13.352 22.819-13.352 9.442.001 18.186 5.117 22.821 13.353z"/><path d="m333.352 330.53c1.377 2.447 3.922 3.823 6.543 3.823 1.246 0 2.509-.311 3.672-.965 3.609-2.032 4.889-6.605 2.857-10.215-7.289-12.95-21.042-20.995-35.892-20.995s-28.603 8.045-35.892 20.995c-2.031 3.61-.752 8.183 2.857 10.215 3.609 2.03 8.183.752 10.215-2.857 4.635-8.236 13.379-13.352 22.819-13.352s18.186 5.115 22.821 13.351z"/><path d="m255.667 243.159c4.142 0 7.5-3.358 7.5-7.5s-3.358-7.5-7.5-7.5c-58.768 0-106.58-47.812-106.58-106.58s47.812-106.579 106.58-106.579 106.58 47.812 106.58 106.58c0 45.651-29.013 86.205-72.195 100.913-3.921 1.336-6.017 5.597-4.681 9.518s5.597 6.016 9.518 4.682c49.261-16.779 82.358-63.04 82.358-115.112-.001-67.04-54.541-121.581-121.58-121.581s-121.58 54.541-121.58 121.58 54.541 121.579 121.58 121.579z"/><path d="m209.457 100.604c0-3.618 2.944-6.562 6.562-6.562s6.562 2.943 6.562 6.562c0 4.142 3.358 7.5 7.5 7.5s7.5-3.358 7.5-7.5c0-11.889-9.672-21.562-21.562-21.562s-21.562 9.672-21.562 21.562c0 4.142 3.358 7.5 7.5 7.5s7.5-3.358 7.5-7.5z"/><path d="m288.753 100.604c0-3.618 2.944-6.562 6.562-6.562s6.562 2.943 6.562 6.562c0 4.142 3.358 7.5 7.5 7.5s7.5-3.358 7.5-7.5c0-11.889-9.673-21.562-21.562-21.562s-21.562 9.672-21.562 21.562c0 4.142 3.358 7.5 7.5 7.5s7.5-3.358 7.5-7.5z"/><path d="m255.667 176.117c24.043 0 46.309-13.025 58.11-33.992 2.031-3.61.752-8.183-2.857-10.215-3.608-2.03-8.183-.751-10.215 2.857-9.147 16.253-26.404 26.35-45.038 26.35s-35.891-10.097-45.038-26.35c-2.032-3.61-6.604-4.888-10.215-2.857-3.609 2.032-4.889 6.605-2.857 10.215 11.801 20.967 34.067 33.992 58.11 33.992z"/></g></svg>