<svg id="Capa_1" enable-background="new 0 0 512 512" height="512" viewBox="0 0 512 512" width="512" xmlns="http://www.w3.org/2000/svg"><g><g><path d="m91.3 504.5v-40.932h329.4v40.932" fill="#8b5e5e"/><g><path d="m191.634 46.016c0-21.095-17.101-38.197-38.197-38.197-16.384 0-30.353 10.318-35.778 24.808-1.101-.065-2.208-.108-3.326-.108-30.73 0-55.642 24.912-55.642 55.642 0 20.335 10.913 38.114 27.197 47.821-5.52 6.623-8.844 15.141-8.844 24.437 0 21.095 17.101 38.197 38.196 38.197s38.196-17.101 38.196-38.197c0-9.644-3.581-18.446-9.477-25.168 15.626-9.852 26.015-27.253 26.015-47.09 0-2.536-.186-5.028-.514-7.474 13.09-6.058 22.174-19.3 22.174-34.671z" fill="#ecf4ff"/><path d="m170.168 11.67c-8.751 4.267-15.623 11.772-19.059 20.957-1.095-.066-2.209-.104-3.323-.104-30.727 0-55.639 24.912-55.639 55.639 0 20.334 10.913 38.119 27.197 47.823-5.522 6.617-8.845 15.142-8.845 24.44 0 15.095 8.76 28.15 21.476 34.343-5.05 2.464-10.733 3.852-16.728 3.852-21.098 0-38.204-17.105-38.204-38.194 0-9.298 3.323-17.823 8.845-24.44-16.284-9.704-27.196-27.489-27.196-47.823 0-30.727 24.912-55.639 55.639-55.639 1.123 0 2.228.038 3.332.104 5.419-14.49 19.39-24.808 35.777-24.808 5.995-.002 11.678 1.386 16.728 3.85z" fill="#ddeafb"/><path d="m320.365 46.016c0-21.095 17.101-38.197 38.197-38.197 16.384 0 30.353 10.318 35.778 24.808 1.101-.065 2.208-.108 3.326-.108 30.73 0 55.642 24.912 55.642 55.642 0 20.335-10.913 38.114-27.197 47.821 5.52 6.623 8.844 15.141 8.844 24.437 0 21.095-17.101 38.197-38.196 38.197s-38.196-17.101-38.196-38.197c0-9.644 3.581-18.446 9.477-25.168-15.626-9.852-26.015-27.253-26.015-47.09 0-2.536.186-5.028.514-7.474-13.09-6.058-22.174-19.3-22.174-34.671z" fill="#ecf4ff"/><path d="m413.169 194.932c-4.965 2.369-10.535 3.691-16.407 3.691-21.098 0-38.204-17.105-38.204-38.194 0-9.648 3.587-18.446 9.478-25.176-15.623-9.846-26.017-27.253-26.017-47.087 0-2.539.189-5.032.519-7.476-13.093-6.06-22.175-19.295-22.175-34.673 0-21.089 17.105-38.194 38.194-38.194 5.872 0 11.432 1.322 16.397 3.7-12.886 6.136-21.788 19.276-21.788 34.494 0 15.378 9.091 28.613 22.175 34.673-.33 2.445-.51 4.937-.51 7.476 0 19.833 10.384 37.241 26.017 47.087-5.9 6.731-9.478 15.529-9.478 25.176.002 15.226 8.913 28.367 21.799 34.503z" fill="#ddeafb"/><path d="m373.724 448.382h-235.442c2.492-26.309 5.815-49.938 7.854-63.427 1.189-7.75 5.749-14.613 12.48-18.644 12.82-7.684 26.356-13.773 39.119-18.55 23.591-8.855 44.557-13.225 53.572-14.849 3.115-.566 6.278-.566 9.383 0 9.015 1.624 29.981 5.994 53.572 14.849 12.763 4.777 26.3 10.865 39.119 18.55 6.731 4.031 11.29 10.894 12.48 18.644 2.039 13.49 5.362 37.118 7.863 63.427z" fill="#365e7d"/><path d="m217.83 403.568s15.906 28.809 38.167 44.648c22.261-15.839 38.167-44.648 38.167-44.648v-48.296h-76.334z" fill="#ecf4ff"/><path d="m277.114 428.02c-5.918 7.115-13.107 14.496-21.119 20.201-8.012-5.704-15.201-13.086-21.119-20.201l21.119-20.308z" fill="#d57080"/><path d="m217.83 371.018 38.169 36.695 38.169-36.695" fill="#d57080"/><path d="m179.648 355.276c-5.201 4.361-8.732 11.706-9.657 19.994-1.68 15.349-4.484 42.867-6.476 73.113h-25.233c2.492-26.309 5.815-49.938 7.854-63.427 1.189-7.75 5.749-14.613 12.48-18.644 6.881-4.126 13.971-7.789 21.032-11.036z" fill="#2b4d66"/><path d="m314.262 347.762-20.094 55.806-38.169-36.695-38.169 36.695-20.094-55.806c23.587-8.856 44.557-13.225 53.573-14.849 3.109-.566 6.271-.566 9.379 0 9.017 1.624 29.987 5.993 53.574 14.849z" fill="#ddeafb"/><path d="m284.977 289.503v48.394c0 16-12.975 28.975-28.975 28.975-16.009 0-28.984-12.975-28.984-28.975v-48.394z" fill="#ffddce"/><g fill="#ffcbbe"><path d="m265.465 365.291c-2.965 1.02-6.147 1.578-9.461 1.578-16.009 0-28.984-12.975-28.984-28.975v-48.394h18.921v48.394c0 12.696 8.162 23.482 19.524 27.397z"/><path d="m134.941 249.206c-20.893 0-37.831-16.937-37.831-37.831 0-2.876.321-5.676.929-8.368 4.908-21.735 36.902-18.17 36.902 4.112h242.116c0-22.282 31.994-25.847 36.902-4.112.608 2.692.929 5.492.929 8.368 0 20.893-16.937 37.831-37.831 37.831"/><path d="m227.018 289.503h57.959v44.583h-57.959z"/></g><path d="m134.938 126.444v104.063c0 48.731 39.505 88.236 88.236 88.236h65.647c48.731 0 88.236-39.505 88.236-88.236v-104.063c0-65.69-53.252-118.943-118.943-118.943h-4.233c-65.691 0-118.943 53.253-118.943 118.943z" fill="#ffddce"/><path d="m280.115 318.746h-56.942c-48.729 0-88.236-39.506-88.236-88.236v-104.066c.001-65.684 53.252-118.944 118.945-118.944h4.229c9.062 0 17.879 1.01 26.356 2.936-53.015 11.989-92.587 59.387-92.587 116.008v104.066c0 48.73 39.506 88.236 88.235 88.236z" fill="#ffcbbe"/><g fill="#e0f1f4"><circle cx="199.054" cy="200.352" r="39.932"/><circle cx="312.94" cy="200.352" r="39.932"/></g></g><path d="m440.737 482.93h-369.474c-6.942 0-12.57-5.628-12.57-12.57v-9.407c0-6.942 5.628-12.57 12.57-12.57h369.474c6.942 0 12.57 5.628 12.57 12.57v9.407c0 6.942-5.628 12.57-12.57 12.57z" fill="#9d6b6b"/><path d="m114.533 482.93h-43.27c-6.94 0-12.57-5.63-12.57-12.57v-9.41c0-6.94 5.63-12.57 12.57-12.57h43.27c-6.95 0-12.58 5.63-12.58 12.57v9.41c0 6.94 5.63 12.57 12.58 12.57z" fill="#8b5e5e"/></g><g><path d="m312.94 418.395c-4.143 0-7.5 3.358-7.5 7.5s3.357 7.5 7.5 7.5h18.539c4.143 0 7.5-3.358 7.5-7.5s-3.357-7.5-7.5-7.5z"/><path d="m206.312 180.632c-6.306 0-11.436 8.513-11.436 18.977s5.13 18.977 11.436 18.977 11.436-8.513 11.436-18.977-5.13-18.977-11.436-18.977z"/><path d="m305.682 180.632c-6.306 0-11.436 8.513-11.436 18.977s5.13 18.977 11.436 18.977 11.437-8.513 11.437-18.977-5.131-18.977-11.437-18.977z"/><path d="m266.93 259.146c-6.027 6.028-15.834 6.027-21.861 0-2.929-2.929-7.678-2.929-10.606 0-2.929 2.929-2.929 7.678 0 10.606 5.938 5.938 13.738 8.907 21.537 8.907 7.8 0 15.6-2.969 21.538-8.907 2.929-2.929 2.929-7.678 0-10.606-2.93-2.929-7.678-2.929-10.608 0z"/><path d="m335.727 84.125c4.143 0 7.5-3.358 7.5-7.5v-.472c0-4.142-3.357-7.5-7.5-7.5s-7.5 3.358-7.5 7.5v.472c0 4.142 3.357 7.5 7.5 7.5z"/><path d="m342.725 91.424c0 4.142 3.357 7.5 7.5 7.5s7.5-3.358 7.5-7.5v-.472c0-4.142-3.357-7.5-7.5-7.5s-7.5 3.358-7.5 7.5z"/><path d="m331.479 103.766c4.143 0 7.5-3.358 7.5-7.5v-.472c0-4.142-3.357-7.5-7.5-7.5s-7.5 3.358-7.5 7.5v.472c0 4.142 3.357 7.5 7.5 7.5z"/><path d="m440.738 440.882h-35.025v-93.12c0-1.989-.79-3.897-2.196-5.303l-23.938-23.938c-2.929-2.928-7.677-2.929-10.607 0-2.929 2.929-2.929 7.678 0 10.606l21.742 21.741v90.014h-10.193c-2.329-22.867-5.177-43.384-7.246-57.065-1.539-10.032-7.386-18.758-16.037-23.939-11.908-7.138-25.482-13.578-40.341-19.14-7.92-2.97-16.114-5.647-24.417-8.02v-6.557c9.836-.369 19.469-2.221 28.681-5.535 3.897-1.402 5.92-5.699 4.518-9.596-1.402-3.898-5.702-5.919-9.596-4.518-8.719 3.137-17.89 4.728-27.261 4.728h-65.65c-44.515 0-80.73-36.215-80.73-80.73v-33.255l9.355 6.987c1.986 24.34 22.416 43.543 47.259 43.543 24.439 0 44.616-18.581 47.157-42.357 6.33-2.181 13.243-2.181 19.572 0 2.541 23.776 22.717 42.357 47.157 42.357 24.844 0 45.273-19.203 47.259-43.543l9.361-6.991v33.26c0 24.288-10.79 47.056-29.603 62.468-3.204 2.625-3.674 7.351-1.049 10.555 1.482 1.81 3.636 2.748 5.806 2.747 1.672 0 3.354-.556 4.749-1.698 15.402-12.618 26.265-29.396 31.515-48.056 23.165-1.996 41.409-21.477 41.409-45.15 0-3.381-.375-6.753-1.113-10.02-.155-.688-.339-1.358-.538-2.018 13.404-8.207 21.723-22.757 21.723-38.913 0-7.917-2.072-15.681-5.933-22.507 15.145-11.876 24.283-30.299 24.283-49.756 0-34.316-27.52-62.325-61.652-63.122-7.771-14.98-23.469-24.722-40.597-24.722-14.17 0-27.312 6.54-35.89 17.446-18.911-11.276-40.991-17.765-64.561-17.765h-4.23c-23.195 0-45.395 6.265-64.609 17.688-8.58-10.861-21.693-17.371-35.832-17.371-17.138 0-32.836 9.742-40.6 24.722-34.131.794-61.65 28.805-61.65 63.123 0 19.455 9.139 37.877 24.281 49.754-3.858 6.821-5.929 14.584-5.929 22.509 0 16.147 8.318 30.698 21.72 38.911-.2.661-.383 1.331-.539 2.019-.738 3.271-1.113 6.642-1.113 10.021 0 23.678 18.252 43.162 41.424 45.151 11.045 39.061 46.319 68.048 88.485 69.637v6.555c-8.285 2.368-16.478 5.045-24.414 8.019-14.864 5.563-28.438 12.003-40.343 19.139-8.654 5.183-14.5 13.909-16.042 23.958-2.067 13.673-4.915 34.192-7.236 57.048h-10.195v-90.014l21.741-21.741c2.929-2.929 2.929-7.678 0-10.606-2.929-2.929-7.678-2.929-10.606 0l-23.938 23.938c-1.407 1.407-2.197 3.314-2.197 5.303v93.12h-35.026c-11.067 0-20.07 9.003-20.07 20.07v9.407c0 11.067 9.003 20.07 20.07 20.07h12.537v14.07c0 4.142 3.358 7.5 7.5 7.5s7.5-3.358 7.5-7.5v-14.07h314.4v14.07c0 4.142 3.357 7.5 7.5 7.5s7.5-3.358 7.5-7.5v-14.07h12.537c11.066 0 20.069-9.003 20.069-20.07v-9.407c.001-11.067-9.002-20.071-20.068-20.071zm-241.684-208.098c-17.883 0-32.432-14.549-32.432-32.432s14.549-32.432 32.432-32.432 32.432 14.549 32.432 32.432-14.549 32.432-32.432 32.432zm113.886 0c-17.883 0-32.432-14.549-32.432-32.432s14.549-32.432 32.432-32.432 32.432 14.549 32.432 32.432c-.001 17.883-14.549 32.432-32.432 32.432zm71.057 8.112c.37-3.427.562-6.893.562-10.386v-6.621c1.938-2.045 5.644-5.124 9.345-3.628 3.84 1.549 8.211-.31 9.761-4.149 1.55-3.841-.308-8.212-4.149-9.762-4.84-1.952-9.969-1.989-14.914-.193.449-6.693 5.517-9.657 9.896-10.145 4.59-.512 10.52 1.447 12.146 8.649.494 2.185.744 4.444.744 6.715 0 14.335-10.002 26.372-23.391 29.52zm-25.436-225.578c12.731 0 24.287 8.013 28.754 19.939 1.154 3.083 4.189 5.042 7.471 4.856 1.017-.061 1.957-.09 2.876-.09 26.549 0 48.148 21.595 48.148 48.139 0 16.873-9.019 32.729-23.536 41.38-1.885 1.124-3.183 3.016-3.553 5.179s.226 4.379 1.63 6.065c4.584 5.502 7.108 12.477 7.108 19.639 0 10.985-5.727 20.862-14.923 26.336-5.218-4.346-12.151-6.498-19.7-5.657-2.978.332-5.745 1.12-8.276 2.255v-56.919c0-40.77-19.403-77.088-49.455-100.225 5.768-6.836 14.296-10.897 23.456-10.897zm-265.281 119.406c-.369-2.164-1.667-4.058-3.554-5.182-14.518-8.652-23.536-24.508-23.536-41.38 0-26.544 21.595-48.139 48.14-48.139.924 0 1.868.029 2.885.09 3.279.185 6.318-1.775 7.472-4.86 4.459-11.924 16.014-19.935 28.753-19.935 9.121 0 17.614 4.029 23.38 10.813-11.347 8.736-21.293 19.476-29.316 31.94-2.242 3.483-1.236 8.124 2.247 10.366 3.481 2.242 8.123 1.237 10.366-2.247 20.634-32.054 55.685-51.19 93.763-51.19h4.23c61.453 0 111.449 49.992 111.449 111.44v52.089l-11.155 8.33c-5.827-19.6-23.998-33.939-45.465-33.939-22.62 0-41.58 15.92-46.294 37.142-6.99-1.696-14.307-1.696-21.297 0-4.714-21.221-23.675-37.142-46.294-37.142-21.467 0-39.638 14.339-45.465 33.939l-11.149-8.326v-52.093c0-12.388 2.017-24.549 5.994-36.147 1.344-3.918-.743-8.184-4.661-9.527-3.917-1.344-8.184.743-9.527 4.661-4.516 13.167-6.806 26.966-6.806 41.013v56.919c-2.532-1.136-5.299-1.923-8.277-2.255-7.552-.844-14.485 1.309-19.703 5.655-9.193-5.48-14.919-15.357-14.919-26.334 0-7.173 2.522-14.146 7.104-19.634 1.407-1.686 2.004-3.903 1.635-6.067zm11.331 76.651c0-2.269.25-4.528.745-6.716 1.625-7.202 7.564-9.159 12.146-8.648 4.379.488 9.447 3.452 9.896 10.146-4.945-1.795-10.074-1.759-14.914.193-3.841 1.55-5.699 5.92-4.149 9.762 1.55 3.841 5.92 5.697 9.762 4.149 3.703-1.495 7.409 1.586 9.345 3.63v6.619c0 3.51.196 6.974.565 10.387-13.393-3.147-23.396-15.184-23.396-29.522zm253.834 174.701c1.995 13.196 4.729 32.845 6.998 54.806h-89.776c2.417-2.517 4.823-5.194 7.209-8.062 10.866-13.047 17.573-25.12 17.853-25.627l-.006-.003c.191-.346.366-.702.502-1.081l17.481-48.551c11.246 4.569 21.596 9.658 30.821 15.188 4.809 2.879 8.06 7.744 8.918 13.33zm-123.925-48.181v-11.649h42.959v11.649c0 11.84-9.63 21.474-21.469 21.479-.007 0-.013 0-.02 0-11.84-.006-21.47-9.639-21.47-21.479zm31.896 49.397-10.422 10.018-10.417-10.014 10.422-10.019zm-10.422 30.826 10.765 10.351c-3.595 3.914-7.194 7.365-10.765 10.303-3.571-2.938-7.168-6.389-10.765-10.304zm20.362-1.231-9.54-9.173 10.422-10.019 7.422 7.135c-1.936 3.077-4.767 7.348-8.304 12.057zm-5.184-45.831c9.59-4.406 16.948-12.845 19.895-23.137 4.585 1.355 9.13 2.804 13.599 4.354l-13.637 37.874zm-30.345 0-19.858 19.091-13.637-37.873c4.475-1.552 9.02-3.001 13.599-4.355 2.947 10.291 10.306 18.732 19.896 23.137zm-6.071 26.644 10.417 10.014-9.54 9.172c-3.536-4.706-6.365-8.974-8.3-12.05zm-81.207-11.607c.86-5.603 4.111-10.467 8.923-13.349 9.224-5.528 19.573-10.617 30.821-15.186l17.482 48.551c.136.376.309.732.499 1.077l-.013.007c.28.507 6.986 12.58 17.849 25.624 2.388 2.871 4.795 5.548 7.213 8.066h-89.763c2.262-21.949 4.995-41.604 6.989-54.79zm292.258 84.267c0 2.796-2.274 5.07-5.069 5.07h-20.038-329.4-20.037c-2.796 0-5.07-2.274-5.07-5.07v-9.407c0-2.796 2.274-5.07 5.07-5.07h67.018 235.442 67.014c2.795 0 5.069 2.274 5.069 5.07v9.407z"/></g></g></svg>