<svg height="511pt" viewBox="0 -83 511.99958 511" width="511pt" xmlns="http://www.w3.org/2000/svg"><path d="m215.3125 86.378906h-179.265625c-15.765625 0-28.546875-12.78125-28.546875-28.546875v-21.285156c0-15.765625 12.78125-28.546875 28.546875-28.546875h179.265625c21.644531 0 39.191406 17.546875 39.191406 39.1875 0 21.644531-17.546875 39.191406-39.191406 39.191406zm0 0" fill="#ffbe73"/><path d="m67.519531 57.832031v-21.285156c0-15.765625 12.777344-28.546875 28.542969-28.546875h-60.015625c-15.765625 0-28.546875 12.78125-28.546875 28.546875v21.285156c0 15.765625 12.78125 28.546875 28.546875 28.546875h60.015625c-15.765625 0-28.542969-12.78125-28.542969-28.546875zm0 0" fill="#ffa93f"/><g fill="#f9ee80"><path d="m319.914062 23.882812 4.171876 8.457032 9.332031 1.355468c7.398437 1.074219 10.351562 10.167969 5 15.386719l-6.753907 6.582031 1.59375 9.292969c1.265626 7.367188-6.46875 12.988281-13.085937 9.507813l-8.347656-4.386719-8.34375 4.386719c-6.617188 3.480468-14.351563-2.140625-13.085938-9.507813l1.59375-9.292969-6.753906-6.582031c-5.351563-5.21875-2.398437-14.3125 5-15.386719l9.332031-1.355468 4.171875-8.457032c3.304688-6.703124 12.867188-6.703124 16.175781 0zm0 0"/><path d="m401.585938 23.882812 4.175781 8.457032 9.328125 1.355468c7.402344 1.074219 10.355468 10.167969 5 15.386719l-6.75 6.582031 1.59375 9.292969c1.261718 7.367188-6.472656 12.988281-13.089844 9.507813l-8.34375-4.386719-8.34375 4.386719c-6.617188 3.480468-14.355469-2.140625-13.089844-9.507813l1.59375-9.292969-6.75-6.582031c-5.355468-5.21875-2.402344-14.3125 4.996094-15.386719l9.332031-1.355468 4.171875-8.457032c3.308594-6.703124 12.867188-6.703124 16.175782 0zm0 0"/><path d="m483.261719 23.882812 4.171875 8.457032 9.332031 1.355468c7.398437 1.074219 10.351563 10.167969 5 15.386719l-6.753906 6.582031 1.59375 9.292969c1.265625 7.367188-6.46875 12.988281-13.085938 9.507813l-8.34375-4.386719-8.347656 4.386719c-6.617187 3.480468-14.351563-2.140625-13.085937-9.507813l1.59375-9.292969-6.753907-6.582031c-5.351562-5.21875-2.398437-14.3125 5-15.386719l9.332031-1.355468 4.171876-8.457032c3.308593-6.703124 12.867187-6.703124 16.175781 0zm0 0"/></g><path d="m150.230469 212.246094h-114.183594c-15.765625 0-28.546875-12.777344-28.546875-28.546875v-21.285157c0-15.765624 12.78125-28.542968 28.546875-28.542968h114.183594c21.644531 0 39.191406 17.542968 39.191406 39.1875 0 21.644531-17.546875 39.1875-39.191406 39.1875zm0 0" fill="#ff8f71"/><path d="m67.519531 183.699219v-21.285157c0-15.765624 12.777344-28.542968 28.542969-28.542968h-60.015625c-15.765625 0-28.546875 12.777344-28.546875 28.542968v21.285157c0 15.769531 12.78125 28.546875 28.546875 28.546875h60.015625c-15.765625 0-28.542969-12.777344-28.542969-28.546875zm0 0" fill="#ff6e42"/><path d="m254.832031 149.753906 4.171875 8.457032 9.332032 1.355468c7.398437 1.074219 10.351562 10.164063 4.996093 15.382813l-6.75 6.582031 1.59375 9.292969c1.265625 7.371093-6.46875 12.988281-13.085937 9.511719l-8.347656-4.390626-8.34375 4.390626c-6.617188 3.476562-14.351563-2.140626-13.089844-9.511719l1.59375-9.292969-6.75-6.582031c-5.355469-5.21875-2.402344-14.308594 4.996094-15.382813l9.332031-1.355468 4.171875-8.457032c3.3125-6.703125 12.871094-6.703125 16.179687 0zm0 0" fill="#f9ee80"/><path d="m336.503906 149.753906 4.175782 8.457032 9.328124 1.355468c7.402344 1.074219 10.355469 10.164063 5 15.382813l-6.75 6.582031 1.59375 9.292969c1.261719 7.371093-6.472656 12.988281-13.089843 9.511719l-8.34375-4.390626-8.34375 4.390626c-6.621094 3.476562-14.351563-2.140626-13.089844-9.511719l1.59375-9.292969-6.75-6.582031c-5.355469-5.21875-2.398437-14.308594 4.996094-15.382813l9.332031-1.355468 4.171875-8.457032c3.308594-6.703125 12.867187-6.703125 16.175781 0zm0 0" fill="#f9ee80"/><path d="m103.9375 338.117188h-67.890625c-15.765625 0-28.546875-12.78125-28.546875-28.546876v-21.285156c0-15.765625 12.78125-28.546875 28.546875-28.546875h67.890625c21.644531 0 39.1875 17.546875 39.1875 39.1875 0 21.644531-17.542969 39.191407-39.1875 39.191407zm0 0" fill="#fd5c6f"/><path d="m67.519531 309.570312v-21.285156c0-15.765625 12.777344-28.546875 28.542969-28.546875h-60.015625c-15.765625 0-28.546875 12.78125-28.546875 28.546875v21.285156c0 15.765626 12.78125 28.546876 28.546875 28.546876h60.015625c-15.765625 0-28.542969-12.78125-28.542969-28.546876zm0 0" fill="#f6334c"/><path d="m208.535156 275.625 4.175782 8.453125 9.328124 1.355469c7.398438 1.074218 10.355469 10.167968 5 15.386718l-6.75 6.582032 1.59375 9.292968c1.261719 7.367188-6.472656 12.988282-13.089843 9.507813l-8.347657-4.386719-8.34375 4.386719c-6.617187 3.480469-14.351562-2.140625-13.085937-9.507813l1.59375-9.292968-6.753906-6.582032c-5.351563-5.21875-2.398438-14.3125 5-15.386718l9.332031-1.355469 4.171875-8.453125c3.308594-6.707031 12.867187-6.707031 16.175781 0zm0 0" fill="#f9ee80"/><path d="m215.3125 93.878906h-179.265625c-19.875 0-36.046875-16.171875-36.046875-36.046875v-21.285156c0-19.878906 16.171875-36.046875 36.046875-36.046875h147.570313c4.140624 0 7.5 3.355469 7.5 7.5s-3.359376 7.5-7.5 7.5h-147.570313c-11.605469 0-21.046875 9.441406-21.046875 21.046875v21.285156c0 11.605469 9.441406 21.046875 21.046875 21.046875h179.265625c17.472656 0 31.691406-14.21875 31.691406-31.6875 0-17.476562-14.21875-31.691406-31.691406-31.691406-4.140625 0-7.5-3.355469-7.5-7.5 0-4.140625 3.359375-7.5 7.5-7.5 25.746094 0 46.691406 20.945312 46.691406 46.691406 0 25.742188-20.945312 46.6875-46.691406 46.6875zm0 0"/><path d="m316.679688 81.101562-4.855469-2.550781-4.851563 2.550781c-5.609375 2.949219-12.273437 2.46875-17.398437-1.257812-5.125-3.722656-7.644531-9.914062-6.574219-16.15625l.929688-5.40625-3.929688-3.828125c-4.535156-4.421875-6.140625-10.910156-4.183594-16.9375 1.957032-6.023437 7.070313-10.332031 13.335938-11.242187l5.429687-.789063 2.429688-4.917969c2.800781-5.683594 8.476562-9.210937 14.8125-9.210937 6.335937 0 12.011719 3.527343 14.816406 9.210937l2.425781 4.917969 5.429688.789063c6.265625.910156 11.378906 5.21875 13.335937 11.242187s.355469 12.515625-4.179687 16.9375l-3.929688 3.828125.925782 5.40625c1.070312 6.242188-1.359376 12.554688-6.570313 16.15625-7.355469 5.082031-14.957031 2.542969-17.398437 1.257812zm-4.855469-18.523437c1.199219 0 2.398437.285156 3.492187.859375 0 0 9.4375 4.640625 9.945313 4.269531.507812-.367187-.988281-10.777343-.988281-10.777343-.417969-2.433594.386718-4.914063 2.15625-6.640626 0 0 7.328124-7.542968 7.136718-8.136718-.195312-.597656-10.5625-2.394532-10.5625-2.394532-2.441406-.351562-4.550781-1.886718-5.644531-4.101562 0 0-4.910156-9.300781-5.535156-9.300781-.628907 0-5.535157 9.300781-5.535157 9.300781-1.09375 2.214844-3.207031 3.746094-5.648437 4.101562 0 0-10.363281 1.796876-10.558594 2.394532-.195312.59375 7.136719 8.136718 7.136719 8.136718 1.765625 1.726563 2.574219 4.207032 2.15625 6.640626 0 0-1.496094 10.410156-.988281 10.777343.507812.371094 9.945312-4.269531 9.945312-4.269531 1.09375-.574219 2.292969-.859375 3.492188-.859375zm0 0"/><path d="m398.355469 81.101562-4.855469-2.550781-4.855469 2.550781c-5.609375 2.945313-12.273437 2.464844-17.398437-1.257812s-7.640625-9.914062-6.570313-16.15625l.925781-5.40625-3.929687-3.828125c-4.535156-4.421875-6.136719-10.910156-4.179687-16.933594 1.957031-6.027343 7.066406-10.332031 13.335937-11.246093l5.429687-.789063 2.425782-4.917969c2.804687-5.679687 8.480468-9.207031 14.816406-9.210937 6.335938 0 12.011719 3.53125 14.8125 9.210937l2.429688 4.917969 5.429687.789063c6.265625.914062 11.375 5.21875 13.335937 11.246093 1.957032 6.023438.351563 12.511719-4.179687 16.933594l-3.929687 3.828125.925781 5.40625c1.070312 6.242188-1.292969 12.65625-6.570313 16.15625-8.152344 5.410156-14.960937 2.542969-17.398437 1.257812zm-4.855469-18.523437c1.199219 0 2.394531.285156 3.488281.859375 0 0 9.4375 4.640625 9.945313 4.269531.507812-.367187-.988282-10.777343-.988282-10.777343-.417968-2.433594.390626-4.914063 2.15625-6.640626 0 0 7.332032-7.542968 7.136719-8.136718-.195312-.597656-10.558593-2.394532-10.558593-2.394532-2.441407-.351562-4.554688-1.886718-5.648438-4.101562 0 0-4.90625-9.300781-5.535156-9.300781-.625 0-5.535156 9.300781-5.535156 9.300781-1.09375 2.214844-3.203126 3.746094-5.644532 4.101562 0 0-10.367187 1.796876-10.558594 2.394532-.195312.59375 7.132813 8.136718 7.132813 8.136718 1.769531 1.726563 2.574219 4.207032 2.160156 6.640626 0 0-1.496093 10.410156-.992187 10.777343.507812.371094 9.949218-4.269531 9.949218-4.269531 1.09375-.574219 2.292969-.859375 3.492188-.859375zm0 0"/><path d="m480.027344 81.101562-4.855469-2.550781-4.855469 2.550781c-5.605468 2.949219-12.273437 2.46875-17.398437-1.257812-5.121094-3.722656-7.640625-9.914062-6.570313-16.15625l.925782-5.40625-3.925782-3.828125c-4.535156-4.421875-6.136718-10.910156-4.179687-16.933594 1.957031-6.027343 7.066406-10.332031 13.335937-11.246093l5.425782-.789063 2.429687-4.917969c2.804687-5.679687 8.480469-9.210937 14.8125-9.210937 6.335937.003906 12.011719 3.53125 14.8125 9.210937l2.429687 4.917969 5.429688.789063c6.265625.914062 11.378906 5.21875 13.335938 11.246093 1.957031 6.023438.355468 12.511719-4.179688 16.933594l-3.929688 3.828125.925782 5.40625c1.074218 6.242188-1.324219 12.609375-6.570313 16.15625-7.238281 4.894531-14.957031 2.542969-17.398437 1.257812zm-4.855469-18.523437c1.199219 0 2.398437.285156 3.492187.859375 0 0 9.4375 4.640625 9.945313 4.269531.507813-.367187-.988281-10.777343-.988281-10.777343-.417969-2.433594.386718-4.914063 2.15625-6.640626 0 0 7.328125-7.542968 7.136718-8.136718-.195312-.597656-10.558593-2.394532-10.558593-2.394532-2.441407-.351562-4.554688-1.886718-5.644531-4.101562 0 0-4.910157-9.300781-5.539063-9.300781-.625 0-5.535156 9.300781-5.535156 9.300781-1.089844 2.214844-3.203125 3.746094-5.644531 4.101562 0 0-10.367188 1.796876-10.558594 2.394532-.195313.59375 7.132812 8.136718 7.132812 8.136718 1.769532 1.726563 2.578125 4.207032 2.160156 6.640626 0 0-1.5 10.410156-.992187 10.777343.507813.371094 9.949219-4.269531 9.949219-4.269531 1.089844-.574219 2.289062-.859375 3.488281-.859375zm0 0"/><path d="m150.230469 219.746094h-114.183594c-19.875 0-36.046875-16.167969-36.046875-36.046875v-21.285157c0-19.875 16.171875-36.042968 36.046875-36.042968h114.183594c25.746093 0 46.691406 20.941406 46.691406 46.6875s-20.945313 46.6875-46.691406 46.6875zm-114.183594-78.375c-11.605469 0-21.046875 9.4375-21.046875 21.042968v21.285157c0 11.605469 9.441406 21.046875 21.046875 21.046875h114.183594c17.476562 0 31.691406-14.214844 31.691406-31.6875s-14.214844-31.6875-31.691406-31.6875zm0 0"/><path d="m251.597656 206.972656-4.855468-2.550781-4.855469 2.550781c-5.605469 2.949219-12.273438 2.464844-17.398438-1.257812-5.125-3.726563-7.640625-9.914063-6.570312-16.15625l.925781-5.40625-3.925781-3.828125c-4.539063-4.425781-6.140625-10.914063-4.179688-16.9375 1.957031-6.023438 7.066407-10.332031 13.335938-11.242188l5.425781-.789062 2.429688-4.921875c2.804687-5.679688 8.480468-9.207032 14.8125-9.207032 6.335937 0 12.011718 3.527344 14.816406 9.207032l2.425781 4.921875 5.429687.789062c6.269532.910157 11.378907 5.21875 13.335938 11.242188 1.957031 6.023437.355469 12.511719-4.179688 16.933593l-3.929687 3.828126.929687 5.410156c1.070313 6.242187-1.308593 12.636718-6.574218 16.15625-7.621094 5.09375-14.960938 2.539062-17.398438 1.257812zm-4.855468-18.527344c1.199218 0 2.398437.289063 3.492187.863282 0 0 9.4375 4.640625 9.945313 4.269531.507812-.367187-.988282-10.777344-.988282-10.777344-.417968-2.433593.386719-4.914062 2.15625-6.640625 0 0 7.328125-7.542968 7.136719-8.140625-.195313-.59375-10.558594-2.390625-10.558594-2.390625-2.441406-.355468-4.554687-1.890625-5.648437-4.101562l-4.171875-8.457032c-.277344-.5625-.734375-.847656-1.363281-.847656-.625 0-5.535157 9.304688-5.535157 9.304688-1.09375 2.210937-3.203125 3.746094-5.644531 4.101562 0 0-10.367188 1.796875-10.558594 2.390625-.195312.597657 7.132813 8.140625 7.132813 8.140625 1.769531 1.726563 2.578125 4.207032 2.160156 6.640625 0 0-1.5 10.410157-.992187 10.777344.507812.367187 9.949218-4.269531 9.949218-4.269531 1.089844-.574219 2.289063-.863282 3.488282-.863282zm0 0"/><path d="m333.273438 206.972656-4.855469-2.550781-4.855469 2.550781c-5.605469 2.949219-12.273438 2.464844-17.398438-1.257812s-7.640624-9.914063-6.570312-16.15625l.925781-5.40625-3.925781-3.828125c-4.539062-4.421875-6.140625-10.914063-4.183594-16.9375 1.957032-6.023438 7.070313-10.332031 13.335938-11.242188l5.429687-.789062 2.429688-4.921875c2.800781-5.679688 8.476562-9.207032 14.8125-9.207032 6.335937 0 12.011719 3.527344 14.816406 9.207032l2.425781 4.921875 5.429688.789062c6.265625.910157 11.375 5.21875 13.335937 11.242188 1.957031 6.023437.355469 12.515625-4.183593 16.9375l-3.925782 3.828125.925782 5.40625c1.070312 6.242187-1.492188 12.371094-6.570313 16.15625-7.046875 5.25-14.960937 2.539062-17.398437 1.257812zm-4.855469-18.527344c1.199219 0 2.398437.289063 3.488281.863282 0 0 9.4375 4.640625 9.945312 4.269531.507813-.367187-.988281-10.777344-.988281-10.777344-.417969-2.433593.390625-4.914062 2.15625-6.640625 0 0 7.332031-7.542968 7.136719-8.140625-.195312-.59375-10.558594-2.390625-10.558594-2.390625-2.441406-.355468-4.554687-1.890625-5.644531-4.101562 0 0-4.910156-9.304688-5.539063-9.304688-.625 0-5.535156 9.304688-5.535156 9.304688-1.089844 2.210937-3.203125 3.746094-5.644531 4.101562 0 0-10.367187 1.796875-10.558594 2.390625-.195312.597657 7.136719 8.140625 7.136719 8.140625 1.765625 1.726563 2.574219 4.207032 2.15625 6.640625 0 0-1.496094 10.410157-.988281 10.777344.507812.371094 9.945312-4.269531 9.945312-4.269531 1.09375-.574219 2.292969-.863282 3.492188-.863282zm0 0"/><path d="m103.9375 345.617188h-37.085938c-4.144531 0-7.5-3.359376-7.5-7.5 0-4.144532 3.355469-7.5 7.5-7.5h37.085938c17.472656 0 31.6875-14.214844 31.6875-31.691407 0-17.472656-14.214844-31.6875-31.6875-31.6875h-67.890625c-11.605469 0-21.046875 9.441407-21.046875 21.046875v21.285156c0 11.605469 9.441406 21.046876 21.046875 21.046876 4.140625 0 7.5 3.355468 7.5 7.5 0 4.144531-3.359375 7.5-7.5 7.5-19.875 0-36.046875-16.171876-36.046875-36.046876v-21.285156c0-19.875 16.171875-36.046875 36.046875-36.046875h67.890625c25.742188 0 46.6875 20.945313 46.6875 46.6875 0 25.746094-20.945312 46.691407-46.6875 46.691407zm0 0"/><path d="m205.304688 332.84375-4.855469-2.554688-4.855469 2.554688c-5.609375 2.945312-12.273438 2.464844-17.398438-1.257812-5.125-3.726563-7.644531-9.917969-6.570312-16.160157l.925781-5.40625-3.929687-3.828125c-4.535156-4.421875-6.136719-10.910156-4.179688-16.933594 1.957032-6.023437 7.066406-10.335937 13.335938-11.246093l5.429687-.789063 2.429688-4.917968c2.800781-5.679688 8.480469-9.207032 14.8125-9.207032 6.335937 0 12.011719 3.527344 14.816406 9.207032l2.425781 4.917968 5.429688.789063c6.269531.910156 11.378906 5.222656 13.335937 11.246093 1.957031 6.023438.355469 12.511719-4.183593 16.933594l-3.925782 3.828125.925782 5.40625c1.074218 6.242188-1.53125 12.320313-6.570313 16.15625-7.078125 5.390625-14.960937 2.542969-17.398437 1.261719zm-4.855469-18.527344c1.199219 0 2.394531.285156 3.488281.859375 0 0 9.441406 4.644531 9.945312 4.273438.507813-.371094-.988281-10.78125-.988281-10.78125-.417969-2.433594.390625-4.914063 2.15625-6.636719 0 0 7.332031-7.542969 7.136719-8.140625-.191406-.597656-10.554688-2.390625-10.554688-2.390625-2.445312-.355469-4.554687-1.890625-5.648437-4.105469 0 0-4.910156-9.300781-5.535156-9.300781-.628907 0-5.535157 9.300781-5.535157 9.300781-1.09375 2.214844-3.207031 3.75-5.648437 4.105469 0 0-10.363281 1.792969-10.558594 2.390625-.191406.597656 7.136719 8.140625 7.136719 8.140625 1.769531 1.722656 2.574219 4.203125 2.15625 6.636719 0 0-1.496094 10.410156-.988281 10.78125.507812.367187 9.945312-4.273438 9.945312-4.273438 1.09375-.570312 2.292969-.859375 3.492188-.859375zm0 0"/></svg>